<svg xmlns="http://www.w3.org/2000/svg" xmlns:xlink="http://www.w3.org/1999/xlink" viewBox="0 0 70 70.25"><defs><style>.cls-1{fill:url(#未命名漸層_1002);}.cls-2{fill:url(#未命名漸層_1076);}.cls-3{fill:url(#未命名漸層_4);}.cls-4{fill:#999;}.cls-5{fill:#f2f2f2;}</style><linearGradient id="未命名漸層_1002" x1="35" y1="70" x2="35" gradientUnits="userSpaceOnUse"><stop offset="0" stop-color="#fff"/><stop offset="0.14" stop-color="#f6f6f6"/><stop offset="0.37" stop-color="#dedede"/><stop offset="0.66" stop-color="#b6b6b6"/><stop offset="1" stop-color="gray"/></linearGradient><linearGradient id="未命名漸層_1076" x1="35" y1="70.25" x2="35" y2="3.75" gradientUnits="userSpaceOnUse"><stop offset="0" stop-color="#ccc"/><stop offset="0.33" stop-color="#c9c9c9"/><stop offset="0.54" stop-color="#c1c1c1"/><stop offset="0.7" stop-color="#b3b3b3"/><stop offset="0.85" stop-color="#9f9f9f"/><stop offset="0.98" stop-color="#858585"/><stop offset="1" stop-color="gray"/></linearGradient><linearGradient id="未命名漸層_4" x1="35" y1="68" x2="35" y2="5" gradientUnits="userSpaceOnUse"><stop offset="0.01" stop-color="#ff8a8a"/><stop offset="0.06" stop-color="#fc7f81"/><stop offset="0.16" stop-color="#f86e72"/><stop offset="0.28" stop-color="#f56368"/><stop offset="0.45" stop-color="#f35c62"/><stop offset="0.93" stop-color="#f35a60"/><stop offset="0.95" stop-color="#e46166"/><stop offset="0.97" stop-color="#d9656a"/><stop offset="1" stop-color="#d6676b"/></linearGradient></defs><g id="圖層_2" data-name="圖層 2"><g id="button"><g id="DOWN"><rect class="cls-1" width="70" height="70" rx="35"/><path class="cls-2" d="M35,70.25h0C15.94,70.25.35,55.29.35,37h0C.35,18.71,15.94,3.75,35,3.75h0c19.06,0,34.65,15,34.65,33.25h0C69.65,55.29,54.06,70.25,35,70.25Z"/><path class="cls-3" d="M35,68h0C16.71,68,1.75,53.83,1.75,36.5h0C1.75,19.17,16.71,5,35,5h0C53.29,5,68.25,19.17,68.25,36.5h0C68.25,53.83,53.29,68,35,68Z"/><path class="cls-4" d="M36.43,53.69h-.66c-.46-.42-.94-.83-1.38-1.28-2.77-2.79-5.54-5.58-8.27-8.41-.7-.72-1.26-1.57-1.89-2.36V32.27c.47-.55.88-.48,1.36,0,1.91,2,3.84,3.92,5.77,5.87.21.21.45.41.8.73V18.08c0-1.45.42-1.91,1.85-1.93s2.75,0,4.12,0,1.92.47,1.92,1.95V37.84c0,.29,0,.58,0,1,.36-.33.6-.55.82-.78,1.91-1.93,3.82-3.85,5.71-5.8.49-.51.89-.56,1.35,0v9.37a27.34,27.34,0,0,1-1.77,2.25c-2.77,2.86-5.58,5.69-8.38,8.52C37.38,52.86,36.9,53.27,36.43,53.69Z"/><path class="cls-5" d="M36.41,51.82h-.64c-.45-.41-.91-.79-1.34-1.22-2.66-2.65-5.34-5.3-8-8a28.22,28.22,0,0,1-1.82-2.24V31.46c.45-.52.84-.45,1.31,0,1.84,1.87,3.7,3.72,5.56,5.57.21.2.44.39.77.69v-.92q0-9.42,0-18.85c0-1.38.4-1.81,1.78-1.84s2.65,0,4,0,1.85.45,1.85,1.85V36.76c0,.27,0,.55,0,1l.79-.74c1.84-1.84,3.68-3.66,5.5-5.52.47-.48.87-.53,1.31,0v8.91a27,27,0,0,1-1.71,2.13c-2.67,2.72-5.38,5.41-8.09,8.1C37.32,51,36.85,51.41,36.41,51.82Z"/></g></g></g></svg>