<svg xmlns="http://www.w3.org/2000/svg" xmlns:xlink="http://www.w3.org/1999/xlink" viewBox="0 0 70 70.25"><defs><style>.cls-1{fill:url(#未命名漸層_500);}.cls-2{fill:url(#未命名漸層_1076);}.cls-3{fill:url(#未命名漸層_521);}.cls-4{fill:#fff;}.cls-5{fill:gray;}.cls-6{fill:url(#未命名漸層_543);}</style><linearGradient id="未命名漸層_500" x1="35" y1="70" x2="35" gradientUnits="userSpaceOnUse"><stop offset="0" stop-color="#fff"/><stop offset="0.14" stop-color="#f6f6f6"/><stop offset="0.37" stop-color="#dedede"/><stop offset="0.66" stop-color="#b6b6b6"/><stop offset="1" stop-color="gray"/></linearGradient><linearGradient id="未命名漸層_1076" x1="35" y1="70.25" x2="35" y2="3.75" gradientUnits="userSpaceOnUse"><stop offset="0" stop-color="#ccc"/><stop offset="0.33" stop-color="#c9c9c9"/><stop offset="0.54" stop-color="#c1c1c1"/><stop offset="0.7" stop-color="#b3b3b3"/><stop offset="0.85" stop-color="#9f9f9f"/><stop offset="0.98" stop-color="#858585"/><stop offset="1" stop-color="gray"/></linearGradient><linearGradient id="未命名漸層_521" x1="35" y1="68" x2="35" y2="5" gradientUnits="userSpaceOnUse"><stop offset="0.01" stop-color="#ff8a8a"/><stop offset="0.08" stop-color="#ec7879"/><stop offset="0.17" stop-color="#db6869"/><stop offset="0.29" stop-color="#d05c5e"/><stop offset="0.44" stop-color="#c95658"/><stop offset="0.88" stop-color="#c75456"/><stop offset="0.96" stop-color="#a94d51"/><stop offset="1" stop-color="#9e4b4f"/></linearGradient><linearGradient id="未命名漸層_543" x1="35.96" y1="40.94" x2="35.96" y2="30.94" gradientUnits="userSpaceOnUse"><stop offset="0" stop-color="#b3b3b3"/><stop offset="0.01" stop-color="#b5b5b5"/><stop offset="0.25" stop-color="#d0d0d0"/><stop offset="0.49" stop-color="#e3e3e3"/><stop offset="0.74" stop-color="#eee"/><stop offset="1" stop-color="#f2f2f2"/></linearGradient></defs><g id="圖層_2" data-name="圖層 2"><g id="button"><g id="minus"><rect class="cls-1" width="70" height="70" rx="35"/><path class="cls-2" d="M35,70.25h0C15.94,70.25.35,55.29.35,37h0C.35,18.71,15.94,3.75,35,3.75h0c19.06,0,34.65,15,34.65,33.25h0C69.65,55.29,54.06,70.25,35,70.25Z"/><path class="cls-3" d="M35,68h0C16.71,68,1.75,53.83,1.75,36.5h0C1.75,19.17,16.71,5,35,5h0C53.29,5,68.25,19.17,68.25,36.5h0C68.25,53.83,53.29,68,35,68Z"/><rect class="cls-4" x="15.72" y="29.79" width="40.74" height="10.19"/><rect class="cls-5" x="15.72" y="31.86" width="40.74" height="10.19"/><rect class="cls-6" x="15.96" y="30.94" width="40" height="10"/></g></g></g></svg>