<svg xmlns="http://www.w3.org/2000/svg" xmlns:xlink="http://www.w3.org/1999/xlink" viewBox="0 0 70 70.25"><defs><style>.cls-1{fill:url(#未命名漸層_427);}.cls-2{fill:url(#未命名漸層_1076);}.cls-3{fill:url(#未命名漸層_497);}.cls-4{fill:gray;}.cls-5{fill:#ccc;}.cls-6{fill:url(#未命名漸層_317);}</style><linearGradient id="未命名漸層_427" x1="35" y1="70" x2="35" gradientUnits="userSpaceOnUse"><stop offset="0" stop-color="#fff"/><stop offset="0.14" stop-color="#f6f6f6"/><stop offset="0.37" stop-color="#dedede"/><stop offset="0.66" stop-color="#b6b6b6"/><stop offset="1" stop-color="gray"/></linearGradient><linearGradient id="未命名漸層_1076" x1="35" y1="70.25" x2="35" y2="3.75" gradientUnits="userSpaceOnUse"><stop offset="0" stop-color="#ccc"/><stop offset="0.33" stop-color="#c9c9c9"/><stop offset="0.54" stop-color="#c1c1c1"/><stop offset="0.7" stop-color="#b3b3b3"/><stop offset="0.85" stop-color="#9f9f9f"/><stop offset="0.98" stop-color="#858585"/><stop offset="1" stop-color="gray"/></linearGradient><linearGradient id="未命名漸層_497" x1="35" y1="68" x2="35" y2="5" gradientUnits="userSpaceOnUse"><stop offset="0.01" stop-color="#ff8a8a"/><stop offset="0.06" stop-color="#f37d7e"/><stop offset="0.15" stop-color="#e46c6e"/><stop offset="0.27" stop-color="#d96162"/><stop offset="0.43" stop-color="#d35a5c"/><stop offset="0.88" stop-color="#d1585a"/><stop offset="0.95" stop-color="#ae4a4e"/><stop offset="1" stop-color="#994246"/></linearGradient><linearGradient id="未命名漸層_317" x1="35" y1="54.85" x2="35" y2="14.85" gradientUnits="userSpaceOnUse"><stop offset="0" stop-color="#7a7a7a"/><stop offset="0.23" stop-color="#a6a6a6"/><stop offset="0.46" stop-color="#ccc"/><stop offset="0.67" stop-color="#e8e8e8"/><stop offset="0.86" stop-color="#f9f9f9"/><stop offset="1" stop-color="#fff"/></linearGradient></defs><g id="圖層_2" data-name="圖層 2"><g id="button"><g id="plus"><rect class="cls-1" width="70" height="70" rx="35"/><path class="cls-2" d="M35,70.25h0C15.94,70.25.35,55.29.35,37h0C.35,18.71,15.94,3.75,35,3.75h0c19.06,0,34.65,15,34.65,33.25h0C69.65,55.29,54.06,70.25,35,70.25Z"/><path class="cls-3" d="M35,68h0C16.71,68,1.75,53.83,1.75,36.5h0C1.75,19.17,16.71,5,35,5h0C53.29,5,68.25,19.17,68.25,36.5h0C68.25,53.83,53.29,68,35,68Z"/><polygon class="cls-4" points="55 30.92 40 30.92 40 15.92 30 15.92 30 30.92 15 30.92 15 40.92 30 40.92 30 55.92 40 55.92 40 40.92 55 40.92 55 30.92"/><polygon class="cls-5" points="55 29.08 40 29.08 40 14.08 30 14.08 30 29.08 15 29.08 15 39.08 30 39.08 30 54.08 40 54.08 40 39.08 55 39.08 55 29.08"/><polygon class="cls-6" points="55 29.86 40 29.86 40 14.86 30 14.86 30 29.86 15 29.86 15 39.85 30 39.85 30 54.85 40 54.85 40 39.85 55 39.85 55 29.86"/></g></g></g></svg>