<svg xmlns="http://www.w3.org/2000/svg" xmlns:xlink="http://www.w3.org/1999/xlink" viewBox="0 0 70 70.25"><defs><style>.cls-1{fill:url(#未命名漸層_1002);}.cls-2{fill:url(#未命名漸層_1076);}.cls-3{fill:url(#未命名漸層_7);}.cls-4{fill:#999;}.cls-5{fill:#f2f2f2;}</style><linearGradient id="未命名漸層_1002" x1="35" y1="70" x2="35" gradientUnits="userSpaceOnUse"><stop offset="0" stop-color="#fff"/><stop offset="0.14" stop-color="#f6f6f6"/><stop offset="0.37" stop-color="#dedede"/><stop offset="0.66" stop-color="#b6b6b6"/><stop offset="1" stop-color="gray"/></linearGradient><linearGradient id="未命名漸層_1076" x1="35" y1="70.25" x2="35" y2="3.75" gradientUnits="userSpaceOnUse"><stop offset="0" stop-color="#ccc"/><stop offset="0.33" stop-color="#c9c9c9"/><stop offset="0.54" stop-color="#c1c1c1"/><stop offset="0.7" stop-color="#b3b3b3"/><stop offset="0.85" stop-color="#9f9f9f"/><stop offset="0.98" stop-color="#858585"/><stop offset="1" stop-color="gray"/></linearGradient><linearGradient id="未命名漸層_7" x1="35" y1="68" x2="35" y2="5" gradientUnits="userSpaceOnUse"><stop offset="0.01" stop-color="#ff8a8a"/><stop offset="0.06" stop-color="#fc7f81"/><stop offset="0.16" stop-color="#f86e72"/><stop offset="0.28" stop-color="#f56368"/><stop offset="0.45" stop-color="#f35c62"/><stop offset="0.93" stop-color="#f35a60"/><stop offset="0.95" stop-color="#e46166"/><stop offset="0.97" stop-color="#d9656a"/><stop offset="1" stop-color="#d6676b"/></linearGradient></defs><g id="圖層_2" data-name="圖層 2"><g id="button"><g id="UP"><rect class="cls-1" width="70" height="70" rx="35"/><path class="cls-2" d="M35,70.25h0C15.94,70.25.35,55.29.35,37h0C.35,18.71,15.94,3.75,35,3.75h0c19.06,0,34.65,15,34.65,33.25h0C69.65,55.29,54.06,70.25,35,70.25Z"/><path class="cls-3" d="M35,68h0C16.71,68,1.75,53.83,1.75,36.5h0C1.75,19.17,16.71,5,35,5h0C53.29,5,68.25,19.17,68.25,36.5h0C68.25,53.83,53.29,68,35,68Z"/><path class="cls-4" d="M35.21,16.05h.67c.47.42.95.83,1.4,1.27,2.79,2.78,5.59,5.56,8.35,8.37A28.8,28.8,0,0,1,47.54,28v9.33c-.47.54-.88.47-1.38,0-1.92-2-3.88-3.89-5.82-5.83-.22-.22-.46-.41-.81-.73V51.49c0,1.44-.42,1.9-1.87,1.93s-2.77,0-4.16,0-1.94-.47-1.94-1.94V31.82c0-.28,0-.57,0-1-.35.33-.6.54-.83.77-1.92,1.92-3.86,3.84-5.76,5.78-.49.5-.91.56-1.37,0V28a24.26,24.26,0,0,1,1.79-2.23c2.8-2.85,5.64-5.67,8.47-8.49C34.26,16.88,34.74,16.47,35.21,16.05Z"/><path class="cls-5" d="M34.68,15.6h.64c.45.41.91.8,1.34,1.22,2.66,2.66,5.33,5.3,8,8a26.67,26.67,0,0,1,1.82,2.25V36c-.45.52-.84.45-1.31,0-1.84-1.88-3.71-3.72-5.56-5.58-.21-.2-.44-.39-.78-.69V49.44c0,1.38-.4,1.81-1.78,1.84s-2.65,0-4,0-1.85-.45-1.85-1.85q0-9.37,0-18.76c0-.28,0-.56,0-1-.34.32-.57.53-.79.75-1.84,1.83-3.68,3.66-5.5,5.51-.47.48-.87.53-1.31,0v-8.9a23.57,23.57,0,0,1,1.71-2.14c2.67-2.72,5.38-5.41,8.08-8.1C33.77,16.4,34.23,16,34.68,15.6Z"/></g></g></g></svg>